# xmcd
#
# Track frame offsets:
#	150
#	6156
#	23631
#	40941
#	60291
#	84415
#	99626
#	117975
#	138148
#	157451
#	170337
#	187592
#	218213
#	236072
#	264463
#	279910
#
# Disc length: 3972 seconds
#
# Revision: 1
# Processed by: cddbd v1.5.2PL0 Copyright (c) Steve Scherf et al.
# Submitted via: audiograbber 1.83.01
#
DISCID=cd0f8210
DTITLE=diverse - Younger Than That Now - CD 01
DYEAR=2011
DGENRE=Cover-Rock
TTITLE0=Ian McMillan - That Sunday Morning
TTITLE1=Steve Tilston - Love Minus Zero - No Limit
TTITLE2=Chris and Kellie While - Mississippi
TTITLE3=Clive Gregson - Tomorrow Is A Long Time
TTITLE4=Chris Smither - Visions Of Johanna
TTITLE5=The Burden of Paradise - Spanish Harlem Incident
TTITLE6=Ewan McLennan - Boots of Spanish Leather
TTITLE7=Blonde on Bob - Love Sick
TTITLE8=Patsy Matheson - One More Cup Of Coffee (Valley Below)
TTITLE9=John Leonard - You Ain't Goin' Nowhere
TTITLE10=Dan Wilde - Simple Twist of Fate
TTITLE11=Hans Theesink - Ballad Of Hollis Brown
TTITLE12=Rosalie Deighton - Ring Them Bells
TTITLE13=Gurf Morlix - With God On Our Side
TTITLE14=Stephen Fearing - On Too Many Mornings
TTITLE15=Tony Capstick - To Ramona
EXTD=
EXTT0=
EXTT1=
EXTT2=
EXTT3=
EXTT4=
EXTT5=
EXTT6=
EXTT7=
EXTT8=
EXTT9=
EXTT10=
EXTT11=
EXTT12=
EXTT13=
EXTT14=
EXTT15=
PLAYORDER=
